<svg width="56" height="56" viewBox="0 0 56 56" fill="none" xmlns="http://www.w3.org/2000/svg">
<circle cx="28.0002" cy="28.0002" r="28.0002" fill="#7747EE"/>
<path d="M4.13167 19.502C3.78423 19.8446 3.78423 20.4053 4.13167 20.7479L9.99534 26.531C10.5483 27.0764 11.4848 26.6847 11.4848 25.908L11.4848 23.275L21.8507 23.275C22.3434 23.275 22.7389 22.8684 22.7254 22.3759L22.6635 20.1249V20.1249C22.6635 18.0953 21.0181 16.4499 18.9884 16.4499L11.4848 16.4499L11.4848 14.3418C11.4848 13.5652 10.5483 13.1735 9.99534 13.7189L4.13167 19.502Z" fill="url(#paint0_linear_223_17801)"/>
<path d="M51.8683 34.748C52.2158 34.4054 52.2158 33.8447 51.8683 33.5021L46.0047 27.719C45.4517 27.1736 44.5152 27.5653 44.5152 28.342L44.5152 30.975L34.1493 30.975C33.6566 30.975 33.2611 31.3816 33.2746 31.8741L33.3365 34.1251V34.1251C33.3365 36.1547 34.9819 37.8001 37.0116 37.8001L44.5152 37.8001L44.5152 39.9082C44.5152 40.6848 45.4517 41.0765 46.0047 40.5311L51.8683 34.748Z" fill="url(#paint1_linear_223_17801)"/>
<path d="M28.0001 42.0002C24.287 42.0002 20.7261 40.5252 18.1005 37.8997C15.475 35.2741 14 31.7132 14 28.0001C14 24.287 15.475 20.7261 18.1005 18.1005C20.7261 15.475 24.287 14 28.0001 14C31.7132 14 35.2741 15.475 37.8997 18.1005C40.5252 20.7261 42.0002 24.287 42.0002 28.0001C42.0002 31.7132 40.5252 35.2741 37.8997 37.8997C35.2741 40.5252 31.7132 42.0002 28.0001 42.0002Z" fill="url(#paint2_linear_223_17801)" stroke="#7747EE" stroke-width="1.75001" stroke-linecap="round" stroke-linejoin="round"/>
<path d="M22 34.004V22.002H26.6149C27.6298 22.002 28.431 22.1869 29.0185 22.5567C29.6168 22.9265 30.0441 23.442 30.3004 24.1031C30.5675 24.7643 30.701 25.5432 30.701 26.4397V30.9446H28.6019V26.4901C28.6019 25.8289 28.5164 25.3022 28.3455 24.91C28.1746 24.5178 27.9182 24.2376 27.5764 24.0695C27.2452 23.8902 26.8232 23.8006 26.3105 23.8006H24.0991V34.004H22ZM25.301 25.0613H27.4001V32.2053H29.6114C30.1242 32.2053 30.5462 32.1213 30.8773 31.9532C31.2192 31.7739 31.4755 31.4881 31.6465 31.0959C31.8174 30.7037 31.9029 30.177 31.9029 29.5158V22.002H34.002V29.5662C34.002 30.4515 33.8631 31.2304 33.5854 31.9028C33.3183 32.5639 32.8803 33.0794 32.2714 33.4492C31.6625 33.819 30.8506 34.004 29.8358 34.004H25.301V25.0613Z" fill="#7747EE"/>
<defs>
<linearGradient id="paint0_linear_223_17801" x1="13.1039" y1="13.8991" x2="13.1181" y2="28" gradientUnits="userSpaceOnUse">
<stop stop-color="#C9B5F8"/>
<stop offset="1" stop-color="white"/>
</linearGradient>
<linearGradient id="paint1_linear_223_17801" x1="42.8961" y1="40.3509" x2="42.8819" y2="26.25" gradientUnits="userSpaceOnUse">
<stop stop-color="#C9B5F8"/>
<stop offset="1" stop-color="white"/>
</linearGradient>
<linearGradient id="paint2_linear_223_17801" x1="39.0682" y1="27.9693" x2="14" y2="28.0001" gradientUnits="userSpaceOnUse">
<stop stop-color="#C9B5F8"/>
<stop offset="1" stop-color="white"/>
</linearGradient>
</defs>
</svg>
