<svg width="11" height="14" viewBox="0 0 11 14" fill="none" xmlns="http://www.w3.org/2000/svg">
<path fill-rule="evenodd" clip-rule="evenodd" d="M5.36448 1.26006C4.81727 1.26006 4.28762 1.48528 3.89343 1.89406C3.49849 2.30363 3.27275 2.86385 3.27275 3.45259V5.56951C3.27275 5.91746 2.99068 6.19954 2.64272 6.19954C2.29477 6.19954 2.0127 5.91746 2.0127 5.56951V3.45259C2.0127 2.54415 2.36047 1.66851 2.98639 1.01941C3.61305 0.369534 4.46799 0 5.36448 0C6.26097 0 7.11591 0.369534 7.74257 1.01941C8.36849 1.66851 8.71626 2.54415 8.71626 3.45259V5.56951C8.71626 5.91746 8.43419 6.19954 8.08623 6.19954C7.73828 6.19954 7.4562 5.91746 7.4562 5.56951V3.45259C7.4562 2.86385 7.23047 2.30363 6.83553 1.89406C6.44134 1.48528 5.91169 1.26006 5.36448 1.26006Z" fill="url(#paint0_linear_137_21108)"/>
<path d="M0.601562 5.56934H10.1277V11.9201C10.1277 12.2944 9.98432 12.6534 9.72911 12.918C9.4739 13.1827 9.12775 13.3314 8.76682 13.3314H1.96244C1.60151 13.3314 1.25537 13.1827 1.00015 12.918C0.74494 12.6534 0.601563 12.2944 0.601562 11.9201V5.56934Z" fill="#F8F8F8"/>
<path fill-rule="evenodd" clip-rule="evenodd" d="M0 5.56942C0 5.23714 0.269368 4.96777 0.601651 4.96777H10.1278C10.4601 4.96777 10.7294 5.23714 10.7294 5.56942V11.9202C10.7294 12.4471 10.5278 12.9567 10.1623 13.3357C9.79607 13.7155 9.29461 13.9331 8.76691 13.9331H1.96253C1.43483 13.9331 0.933366 13.7155 0.567147 13.3357C0.201647 12.9567 0 12.4471 0 11.9202V5.56942ZM1.2033 6.17108V11.9202C1.2033 12.1418 1.28841 12.3502 1.43334 12.5005C1.57755 12.65 1.76837 12.7298 1.96253 12.7298H8.76691C8.96107 12.7298 9.15189 12.65 9.2961 12.5005C9.44103 12.3502 9.52614 12.1418 9.52614 11.9202V6.17108H1.2033Z" fill="#F8F8F8"/>
<circle cx="7.16912" cy="8.77166" r="1.2033" fill="#7747EE"/>
<defs>
<linearGradient id="paint0_linear_137_21108" x1="5.01655" y1="6.459" x2="4.98228" y2="2.48894" gradientUnits="userSpaceOnUse">
<stop stop-color="#E4DBFB"/>
<stop offset="1" stop-color="#F8F8F8"/>
</linearGradient>
</defs>
</svg>
