<svg width="40" height="40" viewBox="0 0 40 40" fill="none" xmlns="http://www.w3.org/2000/svg">
<rect width="40" height="40" rx="20" fill="#7747EE"/>
<path fill-rule="evenodd" clip-rule="evenodd" d="M21.7046 10.1225C22.0437 9.78338 22.5936 9.78338 22.9327 10.1225C23.6615 10.8513 24.0451 11.7394 23.902 12.741C23.7673 13.6844 23.1848 14.5723 22.3538 15.4033L19.459 18.298C19.1199 18.6372 18.5701 18.6372 18.2309 18.298C17.8918 17.9589 17.8918 17.409 18.2309 17.0699L21.1257 14.1751C21.8385 13.4623 22.1245 12.9028 22.1827 12.4954C22.2326 12.1461 22.1337 11.7798 21.7046 11.3507C21.3655 11.0115 21.3655 10.4617 21.7046 10.1225ZM28.1081 17.684C27.4548 17.684 26.6977 18.0067 25.8275 18.877L22.9327 21.7717C22.5936 22.1108 22.0437 22.1108 21.7046 21.7717C21.3655 21.4326 21.3655 20.8827 21.7046 20.5436L24.5993 17.6488C25.6589 16.5893 26.8317 15.9471 28.1081 15.9471C29.3846 15.9471 30.5574 16.5893 31.6169 17.6488C31.9561 17.988 31.9561 18.5378 31.6169 18.877C31.2778 19.2161 30.728 19.2161 30.3888 18.877C29.5186 18.0067 28.7615 17.684 28.1081 17.684Z" fill="url(#paint0_linear_223_17612)"/>
<path d="M16.5251 11.8947C16.8322 11.8947 17.1267 11.7727 17.3438 11.5556C17.561 11.3384 17.683 11.0439 17.683 10.7368C17.683 10.4297 17.561 10.1352 17.3438 9.91809C17.1267 9.70094 16.8322 9.57895 16.5251 9.57895C16.218 9.57895 15.9235 9.70094 15.7063 9.91809C15.4892 10.1352 15.3672 10.4297 15.3672 10.7368C15.3672 11.0439 15.4892 11.3384 15.7063 11.5556C15.9235 11.7727 16.218 11.8947 16.5251 11.8947ZM29.2619 11.3158C29.569 11.3158 29.8635 11.1938 30.0807 10.9766C30.2978 10.7595 30.4198 10.465 30.4198 10.1579C30.4198 9.8508 30.2978 9.55629 30.0807 9.33914C29.8635 9.12199 29.569 9 29.2619 9C28.9548 9 28.6603 9.12199 28.4432 9.33914C28.226 9.55629 28.104 9.8508 28.104 10.1579C28.104 10.465 28.226 10.7595 28.4432 10.9766C28.6603 11.1938 28.9548 11.3158 29.2619 11.3158ZM29.2619 24.6316C29.569 24.6316 29.8635 24.5096 30.0807 24.2924C30.2978 24.0753 30.4198 23.7808 30.4198 23.4737C30.4198 23.1666 30.2978 22.8721 30.0807 22.6549C29.8635 22.4378 29.569 22.3158 29.2619 22.3158C28.9548 22.3158 28.6603 22.4378 28.4432 22.6549C28.226 22.8721 28.104 23.1666 28.104 23.4737C28.104 23.7808 28.226 24.0753 28.4432 24.2924C28.6603 24.5096 28.9548 24.6316 29.2619 24.6316Z" fill="#C9B5F8"/>
<path d="M11.0991 30.3246C10.2353 30.6026 9.42539 29.7742 9.72283 28.9169L14.4384 15.3259C14.7075 14.5503 15.7005 14.3321 16.2699 14.9234L25.1455 24.1398C25.7099 24.7259 25.4647 25.7006 24.6902 25.9499L11.0991 30.3246Z" fill="#F8F8F8"/>
<defs>
<linearGradient id="paint0_linear_223_17612" x1="30.4164" y1="15.9338" x2="17.9766" y2="15.9512" gradientUnits="userSpaceOnUse">
<stop stop-color="#C9B5F8"/>
<stop offset="1" stop-color="white"/>
</linearGradient>
</defs>
</svg>
